<svg width="40" height="40" viewBox="0 0 40 40" fill="none" xmlns="http://www.w3.org/2000/svg">
<path d="M19.9999 21.6665C20.9204 21.6665 21.6666 20.9203 21.6666 19.9998C21.6666 19.0794 20.9204 18.3332 19.9999 18.3332C19.0794 18.3332 18.3333 19.0794 18.3333 19.9998C18.3333 20.9203 19.0794 21.6665 19.9999 21.6665Z" stroke="#1E1E1E" stroke-width="3.5" stroke-linecap="round" stroke-linejoin="round"/>
<path d="M19.9999 9.99984C20.9204 9.99984 21.6666 9.25365 21.6666 8.33317C21.6666 7.4127 20.9204 6.6665 19.9999 6.6665C19.0794 6.6665 18.3333 7.4127 18.3333 8.33317C18.3333 9.25365 19.0794 9.99984 19.9999 9.99984Z" stroke="#1E1E1E" stroke-width="3.5" stroke-linecap="round" stroke-linejoin="round"/>
<path d="M19.9999 33.3332C20.9204 33.3332 21.6666 32.587 21.6666 31.6665C21.6666 30.746 20.9204 29.9998 19.9999 29.9998C19.0794 29.9998 18.3333 30.746 18.3333 31.6665C18.3333 32.587 19.0794 33.3332 19.9999 33.3332Z" stroke="#1E1E1E" stroke-width="3.5" stroke-linecap="round" stroke-linejoin="round"/>
</svg>
