<svg width="68" height="60" viewBox="0 0 68 60" fill="none" xmlns="http://www.w3.org/2000/svg">
<path d="M25.3125 45V12.5L59.0625 7.5V40M25.3125 45C25.3125 49.1421 21.5349 52.5 16.875 52.5C12.2151 52.5 8.4375 49.1421 8.4375 45C8.4375 40.8579 12.2151 37.5 16.875 37.5C21.5349 37.5 25.3125 40.8579 25.3125 45ZM59.0625 40C59.0625 44.1421 55.2849 47.5 50.625 47.5C45.9651 47.5 42.1875 44.1421 42.1875 40C42.1875 35.8579 45.9651 32.5 50.625 32.5C55.2849 32.5 59.0625 35.8579 59.0625 40Z" stroke="#1E1E1E" stroke-width="3.5" stroke-linecap="round" stroke-linejoin="round"/>
</svg>
