<svg width="200" height="200" viewBox="0 0 200 200" fill="none" xmlns="http://www.w3.org/2000/svg">
<rect width="200" height="200" fill="white"/>
<path d="M100 84L108 76M108 76L100 68M108 76H92M120 76C120 87.0457 111.046 96 100 96C88.9543 96 80 87.0457 80 76C80 64.9543 88.9543 56 100 56C111.046 56 120 64.9543 120 76Z" stroke="#1E1E1E" stroke-width="2" stroke-linecap="round" stroke-linejoin="round"/>
<path d="M53.8 119.008H61.312V119.824H53.8V119.008ZM52.6 122.716H62.44V123.532H52.6V122.716ZM57.004 119.5H58V122.968H57.004V119.5ZM53.8 115H54.808V119.356H53.8V115ZM63.9991 121.504H64.7071C65.3711 121.504 66.0191 121.488 66.6511 121.456C67.2831 121.416 67.9631 121.336 68.6911 121.216L68.7871 122.032C68.0351 122.168 67.3351 122.256 66.6871 122.296C66.0471 122.328 65.3871 122.344 64.7071 122.344H63.9991V121.504ZM63.9751 115.252H68.0311V119.068H64.9591V121.816H63.9991V118.252H67.0711V116.08H63.9751V115.252ZM71.8951 114.076H72.8431V124.936H71.8951V114.076ZM70.0591 118.36H72.1471V119.176H70.0591V118.36ZM69.4351 114.316H70.3591V124.372H69.4351V114.316ZM80.3211 114.76H81.1131V116.212C81.1131 116.748 81.0131 117.28 80.8131 117.808C80.6131 118.336 80.3251 118.812 79.9491 119.236C79.5811 119.66 79.1291 119.992 78.5931 120.232L78.0531 119.464C78.5251 119.256 78.9291 118.976 79.2651 118.624C79.6091 118.264 79.8691 117.872 80.0451 117.448C80.2291 117.024 80.3211 116.612 80.3211 116.212V114.76ZM80.4891 114.76H81.2811V116.212C81.2811 116.604 81.3651 116.996 81.5331 117.388C81.7091 117.772 81.9611 118.12 82.2891 118.432C82.6251 118.736 83.0211 118.98 83.4771 119.164L82.9491 119.932C82.4291 119.724 81.9851 119.428 81.6171 119.044C81.2491 118.66 80.9691 118.224 80.7771 117.736C80.5851 117.248 80.4891 116.74 80.4891 116.212V114.76ZM86.2491 114.088H87.1971V120.784H86.2491V114.088ZM84.5211 116.992H86.5611V117.808H84.5211V116.992ZM83.9211 114.292H84.8571V120.436H83.9211V114.292ZM83.6331 121.024C84.3771 121.024 85.0171 121.1 85.5531 121.252C86.0971 121.404 86.5171 121.628 86.8131 121.924C87.1091 122.212 87.2571 122.56 87.2571 122.968C87.2571 123.376 87.1091 123.724 86.8131 124.012C86.5171 124.308 86.0971 124.532 85.5531 124.684C85.0171 124.836 84.3771 124.912 83.6331 124.912C82.8891 124.912 82.2451 124.836 81.7011 124.684C81.1571 124.532 80.7371 124.308 80.4411 124.012C80.1531 123.724 80.0091 123.376 80.0091 122.968C80.0091 122.56 80.1531 122.212 80.4411 121.924C80.7371 121.628 81.1571 121.404 81.7011 121.252C82.2451 121.1 82.8891 121.024 83.6331 121.024ZM83.6331 121.792C82.8171 121.792 82.1731 121.896 81.7011 122.104C81.2291 122.312 80.9931 122.6 80.9931 122.968C80.9931 123.336 81.2291 123.624 81.7011 123.832C82.1731 124.04 82.8171 124.144 83.6331 124.144C84.1771 124.144 84.6451 124.096 85.0371 124C85.4291 123.912 85.7291 123.78 85.9371 123.604C86.1531 123.428 86.2611 123.216 86.2611 122.968C86.2611 122.6 86.0251 122.312 85.5531 122.104C85.0891 121.896 84.4491 121.792 83.6331 121.792ZM91.8282 114.688H92.6562V115.804C92.6562 116.508 92.5282 117.156 92.2722 117.748C92.0242 118.34 91.6722 118.86 91.2162 119.308C90.7682 119.748 90.2322 120.084 89.6082 120.316L89.0802 119.512C89.6402 119.312 90.1242 119.028 90.5322 118.66C90.9402 118.292 91.2562 117.864 91.4802 117.376C91.7122 116.88 91.8282 116.356 91.8282 115.804V114.688ZM92.0082 114.688H92.8122V115.768C92.8122 116.28 92.9242 116.764 93.1482 117.22C93.3722 117.676 93.6802 118.08 94.0722 118.432C94.4722 118.776 94.9362 119.036 95.4642 119.212L94.9242 119.992C94.3402 119.768 93.8282 119.452 93.3882 119.044C92.9482 118.636 92.6082 118.152 92.3682 117.592C92.1282 117.032 92.0082 116.424 92.0082 115.768V114.688ZM97.0242 114.076H98.0202V120.496H97.0242V114.076ZM94.4442 120.82C95.5642 120.82 96.4442 121 97.0842 121.36C97.7322 121.72 98.0562 122.224 98.0562 122.872C98.0562 123.512 97.7322 124.012 97.0842 124.372C96.4442 124.732 95.5642 124.912 94.4442 124.912C93.3242 124.912 92.4402 124.732 91.7922 124.372C91.1522 124.012 90.8322 123.512 90.8322 122.872C90.8322 122.224 91.1522 121.72 91.7922 121.36C92.4402 121 93.3242 120.82 94.4442 120.82ZM94.4442 121.612C93.9002 121.612 93.4322 121.664 93.0402 121.768C92.6482 121.864 92.3442 122.008 92.1282 122.2C91.9202 122.384 91.8162 122.608 91.8162 122.872C91.8162 123.128 91.9202 123.352 92.1282 123.544C92.3442 123.728 92.6482 123.872 93.0402 123.976C93.4322 124.072 93.9002 124.12 94.4442 124.12C94.9962 124.12 95.4642 124.072 95.8482 123.976C96.2402 123.872 96.5402 123.728 96.7482 123.544C96.9642 123.352 97.0722 123.128 97.0722 122.872C97.0722 122.608 96.9642 122.384 96.7482 122.2C96.5402 122.008 96.2402 121.864 95.8482 121.768C95.4642 121.664 94.9962 121.612 94.4442 121.612ZM94.6602 116.368H97.2282V117.196H94.6602V116.368ZM110.85 114.076H111.846V124.936H110.85V114.076ZM111.618 118.348H113.622V119.2H111.618V118.348ZM103.938 115H104.922V117.856H108.006V115H108.99V122.332H103.938V115ZM104.922 118.648V121.504H108.006V118.648H104.922ZM114.545 122.764H124.385V123.592H114.545V122.764ZM118.949 120.448H119.933V123.112H118.949V120.448ZM115.745 114.88H123.161V118.168H116.753V120.34H115.769V117.376H122.177V115.696H115.745V114.88ZM115.769 119.92H123.413V120.736H115.769V119.92ZM132.928 114.076H133.924V124.924H132.928V114.076ZM133.66 118.48H135.652V119.308H133.66V118.48ZM130.156 115.24H131.128C131.128 116.272 130.96 117.26 130.624 118.204C130.288 119.14 129.76 120.008 129.04 120.808C128.32 121.6 127.372 122.288 126.196 122.872L125.644 122.104C126.652 121.6 127.488 121.012 128.152 120.34C128.824 119.66 129.324 118.908 129.652 118.084C129.988 117.252 130.156 116.356 130.156 115.396V115.24ZM126.148 115.24H130.66V116.068H126.148V115.24ZM144.531 114.076H145.527V124.936H144.531V114.076ZM141.351 115.252H142.335C142.335 116.036 142.239 116.792 142.047 117.52C141.863 118.248 141.571 118.94 141.171 119.596C140.771 120.244 140.251 120.848 139.611 121.408C138.971 121.968 138.195 122.468 137.283 122.908L136.755 122.104C137.803 121.6 138.667 121.012 139.347 120.34C140.027 119.668 140.531 118.92 140.859 118.096C141.187 117.264 141.351 116.368 141.351 115.408V115.252ZM137.259 115.252H141.771V116.056H137.259V115.252Z" fill="black"/>
</svg>
