<svg width="200" height="200" viewBox="0 0 200 200" fill="none" xmlns="http://www.w3.org/2000/svg">
<rect width="200" height="200" fill="white"/>
<path d="M100 84L108 76M108 76L100 68M108 76H92M120 76C120 87.0457 111.046 96 100 96C88.9543 96 80 87.0457 80 76C80 64.9543 88.9543 56 100 56C111.046 56 120 64.9543 120 76Z" stroke="#1E1E1E" stroke-width="2" stroke-linecap="round" stroke-linejoin="round"/>
<path d="M46.6 119.428H56.416V120.232H46.6V119.428ZM51.016 117.688H51.988V119.764H51.016V117.688ZM47.836 117.376H55.264V118.18H47.836V117.376ZM47.836 114.58H55.192V115.372H48.82V117.856H47.836V114.58ZM51.496 121.012C52.656 121.012 53.564 121.184 54.22 121.528C54.876 121.864 55.204 122.344 55.204 122.968C55.204 123.592 54.876 124.072 54.22 124.408C53.564 124.752 52.656 124.924 51.496 124.924C50.336 124.924 49.424 124.752 48.76 124.408C48.104 124.072 47.776 123.592 47.776 122.968C47.776 122.344 48.104 121.864 48.76 121.528C49.424 121.184 50.336 121.012 51.496 121.012ZM51.484 121.792C50.924 121.792 50.44 121.84 50.032 121.936C49.632 122.024 49.324 122.156 49.108 122.332C48.892 122.5 48.784 122.712 48.784 122.968C48.784 123.216 48.892 123.428 49.108 123.604C49.324 123.78 49.632 123.912 50.032 124C50.44 124.096 50.924 124.144 51.484 124.144C52.06 124.144 52.548 124.096 52.948 124C53.356 123.912 53.668 123.78 53.884 123.604C54.1 123.428 54.208 123.216 54.208 122.968C54.208 122.712 54.1 122.5 53.884 122.332C53.668 122.156 53.356 122.024 52.948 121.936C52.548 121.84 52.06 121.792 51.484 121.792ZM62.5831 115.648H65.8831V116.452H62.5831V115.648ZM62.5831 118.144H65.8831V118.96H62.5831V118.144ZM60.6031 114.724C61.1311 114.724 61.6031 114.836 62.0191 115.06C62.4431 115.276 62.7751 115.58 63.0151 115.972C63.2631 116.356 63.3871 116.8 63.3871 117.304C63.3871 117.808 63.2631 118.256 63.0151 118.648C62.7751 119.032 62.4431 119.336 62.0191 119.56C61.6031 119.776 61.1311 119.884 60.6031 119.884C60.0671 119.884 59.5871 119.776 59.1631 119.56C58.7471 119.336 58.4151 119.032 58.1671 118.648C57.9271 118.256 57.8071 117.808 57.8071 117.304C57.8071 116.8 57.9271 116.356 58.1671 115.972C58.4151 115.58 58.7471 115.276 59.1631 115.06C59.5871 114.836 60.0671 114.724 60.6031 114.724ZM60.6031 115.576C60.2511 115.576 59.9351 115.648 59.6551 115.792C59.3751 115.936 59.1551 116.14 58.9951 116.404C58.8351 116.66 58.7551 116.96 58.7551 117.304C58.7551 117.64 58.8351 117.94 58.9951 118.204C59.1551 118.46 59.3751 118.664 59.6551 118.816C59.9351 118.96 60.2511 119.032 60.6031 119.032C60.9551 119.032 61.2671 118.96 61.5391 118.816C61.8191 118.664 62.0391 118.46 62.1991 118.204C62.3591 117.94 62.4391 117.64 62.4391 117.304C62.4391 116.96 62.3591 116.66 62.1991 116.404C62.0391 116.14 61.8191 115.936 61.5391 115.792C61.2671 115.648 60.9551 115.576 60.6031 115.576ZM65.5711 114.076H66.5671V120.496H65.5711V114.076ZM62.9911 120.76C63.7431 120.76 64.3871 120.844 64.9231 121.012C65.4591 121.172 65.8711 121.408 66.1591 121.72C66.4551 122.024 66.6031 122.396 66.6031 122.836C66.6031 123.268 66.4551 123.64 66.1591 123.952C65.8711 124.264 65.4591 124.5 64.9231 124.66C64.3871 124.828 63.7431 124.912 62.9911 124.912C62.2471 124.912 61.6031 124.828 61.0591 124.66C60.5231 124.5 60.1071 124.264 59.8111 123.952C59.5231 123.64 59.3791 123.268 59.3791 122.836C59.3791 122.396 59.5231 122.024 59.8111 121.72C60.1071 121.408 60.5231 121.172 61.0591 121.012C61.6031 120.844 62.2471 120.76 62.9911 120.76ZM62.9911 121.54C62.4471 121.54 61.9751 121.592 61.5751 121.696C61.1831 121.8 60.8791 121.948 60.6631 122.14C60.4551 122.332 60.3511 122.564 60.3511 122.836C60.3511 123.1 60.4551 123.328 60.6631 123.52C60.8791 123.712 61.1831 123.86 61.5751 123.964C61.9751 124.068 62.4471 124.12 62.9911 124.12C63.5431 124.12 64.0151 124.068 64.4071 123.964C64.7991 123.86 65.0991 123.712 65.3071 123.52C65.5231 123.328 65.6311 123.1 65.6311 122.836C65.6311 122.564 65.5231 122.332 65.3071 122.14C65.0991 121.948 64.7991 121.8 64.4071 121.696C64.0151 121.592 63.5431 121.54 62.9911 121.54ZM71.3181 114.64H72.1341V115.744C72.1341 116.44 72.0101 117.088 71.7621 117.688C71.5221 118.288 71.1781 118.812 70.7301 119.26C70.2821 119.7 69.7581 120.036 69.1581 120.268L68.6181 119.476C69.1701 119.276 69.6461 118.988 70.0461 118.612C70.4541 118.236 70.7661 117.804 70.9821 117.316C71.2061 116.82 71.3181 116.296 71.3181 115.744V114.64ZM71.4981 114.64H72.3021V115.828C72.3021 116.188 72.3661 116.544 72.4941 116.896C72.6221 117.24 72.8021 117.56 73.0341 117.856C73.2741 118.152 73.5541 118.416 73.8741 118.648C74.1941 118.872 74.5501 119.052 74.9421 119.188L74.4141 119.968C73.8381 119.752 73.3301 119.44 72.8901 119.032C72.4501 118.616 72.1061 118.136 71.8581 117.592C71.6181 117.04 71.4981 116.452 71.4981 115.828V114.64ZM76.1061 114.076H77.1021V120.664H76.1061V114.076ZM76.8261 116.884H78.6981V117.724H76.8261V116.884ZM73.6461 120.952C74.3821 120.952 75.0141 121.032 75.5421 121.192C76.0781 121.344 76.4901 121.568 76.7781 121.864C77.0661 122.16 77.2101 122.516 77.2101 122.932C77.2101 123.348 77.0661 123.704 76.7781 124C76.4901 124.296 76.0781 124.52 75.5421 124.672C75.0141 124.832 74.3821 124.912 73.6461 124.912C72.9101 124.912 72.2741 124.832 71.7381 124.672C71.2021 124.52 70.7901 124.296 70.5021 124C70.2141 123.704 70.0701 123.348 70.0701 122.932C70.0701 122.516 70.2141 122.16 70.5021 121.864C70.7901 121.568 71.2021 121.344 71.7381 121.192C72.2741 121.032 72.9101 120.952 73.6461 120.952ZM73.6461 121.744C73.1101 121.744 72.6461 121.792 72.2541 121.888C71.8701 121.984 71.5741 122.12 71.3661 122.296C71.1581 122.472 71.0541 122.684 71.0541 122.932C71.0541 123.188 71.1581 123.404 71.3661 123.58C71.5741 123.756 71.8701 123.892 72.2541 123.988C72.6461 124.076 73.1101 124.12 73.6461 124.12C74.1821 124.12 74.6421 124.076 75.0261 123.988C75.4101 123.892 75.7061 123.756 75.9141 123.58C76.1221 123.404 76.2261 123.188 76.2261 122.932C76.2261 122.684 76.1221 122.472 75.9141 122.296C75.7061 122.12 75.4101 121.984 75.0261 121.888C74.6421 121.792 74.1821 121.744 73.6461 121.744ZM85.3602 114.76H86.1522V116.212C86.1522 116.748 86.0522 117.28 85.8522 117.808C85.6522 118.336 85.3642 118.812 84.9882 119.236C84.6202 119.66 84.1682 119.992 83.6322 120.232L83.0922 119.464C83.5642 119.256 83.9682 118.976 84.3042 118.624C84.6482 118.264 84.9082 117.872 85.0842 117.448C85.2682 117.024 85.3602 116.612 85.3602 116.212V114.76ZM85.5282 114.76H86.3202V116.212C86.3202 116.604 86.4042 116.996 86.5722 117.388C86.7482 117.772 87.0002 118.12 87.3282 118.432C87.6642 118.736 88.0602 118.98 88.5162 119.164L87.9882 119.932C87.4682 119.724 87.0242 119.428 86.6562 119.044C86.2882 118.66 86.0082 118.224 85.8162 117.736C85.6242 117.248 85.5282 116.74 85.5282 116.212V114.76ZM91.2882 114.088H92.2362V120.784H91.2882V114.088ZM89.5602 116.992H91.6002V117.808H89.5602V116.992ZM88.9602 114.292H89.8962V120.436H88.9602V114.292ZM88.6722 121.024C89.4162 121.024 90.0562 121.1 90.5922 121.252C91.1362 121.404 91.5562 121.628 91.8522 121.924C92.1482 122.212 92.2962 122.56 92.2962 122.968C92.2962 123.376 92.1482 123.724 91.8522 124.012C91.5562 124.308 91.1362 124.532 90.5922 124.684C90.0562 124.836 89.4162 124.912 88.6722 124.912C87.9282 124.912 87.2842 124.836 86.7402 124.684C86.1962 124.532 85.7762 124.308 85.4802 124.012C85.1922 123.724 85.0482 123.376 85.0482 122.968C85.0482 122.56 85.1922 122.212 85.4802 121.924C85.7762 121.628 86.1962 121.404 86.7402 121.252C87.2842 121.1 87.9282 121.024 88.6722 121.024ZM88.6722 121.792C87.8562 121.792 87.2122 121.896 86.7402 122.104C86.2682 122.312 86.0322 122.6 86.0322 122.968C86.0322 123.336 86.2682 123.624 86.7402 123.832C87.2122 124.04 87.8562 124.144 88.6722 124.144C89.2162 124.144 89.6842 124.096 90.0762 124C90.4682 123.912 90.7682 123.78 90.9762 123.604C91.1922 123.428 91.3002 123.216 91.3002 122.968C91.3002 122.6 91.0642 122.312 90.5922 122.104C90.1282 121.896 89.4882 121.792 88.6722 121.792ZM96.8673 114.688H97.6953V115.804C97.6953 116.508 97.5673 117.156 97.3113 117.748C97.0633 118.34 96.7113 118.86 96.2553 119.308C95.8073 119.748 95.2713 120.084 94.6473 120.316L94.1193 119.512C94.6793 119.312 95.1633 119.028 95.5713 118.66C95.9793 118.292 96.2953 117.864 96.5193 117.376C96.7513 116.88 96.8673 116.356 96.8673 115.804V114.688ZM97.0473 114.688H97.8513V115.768C97.8513 116.28 97.9633 116.764 98.1873 117.22C98.4113 117.676 98.7193 118.08 99.1113 118.432C99.5113 118.776 99.9753 119.036 100.503 119.212L99.9633 119.992C99.3793 119.768 98.8673 119.452 98.4273 119.044C97.9873 118.636 97.6473 118.152 97.4073 117.592C97.1673 117.032 97.0473 116.424 97.0473 115.768V114.688ZM102.063 114.076H103.059V120.496H102.063V114.076ZM99.4833 120.82C100.603 120.82 101.483 121 102.123 121.36C102.771 121.72 103.095 122.224 103.095 122.872C103.095 123.512 102.771 124.012 102.123 124.372C101.483 124.732 100.603 124.912 99.4833 124.912C98.3633 124.912 97.4793 124.732 96.8313 124.372C96.1913 124.012 95.8713 123.512 95.8713 122.872C95.8713 122.224 96.1913 121.72 96.8313 121.36C97.4793 121 98.3633 120.82 99.4833 120.82ZM99.4833 121.612C98.9393 121.612 98.4713 121.664 98.0793 121.768C97.6873 121.864 97.3833 122.008 97.1673 122.2C96.9593 122.384 96.8553 122.608 96.8553 122.872C96.8553 123.128 96.9593 123.352 97.1673 123.544C97.3833 123.728 97.6873 123.872 98.0793 123.976C98.4713 124.072 98.9393 124.12 99.4833 124.12C100.035 124.12 100.503 124.072 100.887 123.976C101.279 123.872 101.579 123.728 101.787 123.544C102.003 123.352 102.111 123.128 102.111 122.872C102.111 122.608 102.003 122.384 101.787 122.2C101.579 122.008 101.279 121.864 100.887 121.768C100.503 121.664 100.035 121.612 99.4833 121.612ZM99.6992 116.368H102.267V117.196H99.6992V116.368ZM115.889 114.076H116.885V124.936H115.889V114.076ZM116.657 118.348H118.661V119.2H116.657V118.348ZM108.977 115H109.961V117.856H113.045V115H114.029V122.332H108.977V115ZM109.961 118.648V121.504H113.045V118.648H109.961ZM119.584 122.764H129.424V123.592H119.584V122.764ZM123.988 120.448H124.972V123.112H123.988V120.448ZM120.784 114.88H128.2V118.168H121.792V120.34H120.808V117.376H127.216V115.696H120.784V114.88ZM120.808 119.92H128.452V120.736H120.808V119.92ZM137.967 114.076H138.963V124.924H137.967V114.076ZM138.699 118.48H140.691V119.308H138.699V118.48ZM135.195 115.24H136.167C136.167 116.272 135.999 117.26 135.663 118.204C135.327 119.14 134.799 120.008 134.079 120.808C133.359 121.6 132.411 122.288 131.235 122.872L130.683 122.104C131.691 121.6 132.527 121.012 133.191 120.34C133.863 119.66 134.363 118.908 134.691 118.084C135.027 117.252 135.195 116.356 135.195 115.396V115.24ZM131.187 115.24H135.699V116.068H131.187V115.24ZM149.571 114.076H150.567V124.936H149.571V114.076ZM146.391 115.252H147.375C147.375 116.036 147.279 116.792 147.087 117.52C146.903 118.248 146.611 118.94 146.211 119.596C145.811 120.244 145.291 120.848 144.651 121.408C144.011 121.968 143.235 122.468 142.323 122.908L141.795 122.104C142.843 121.6 143.707 121.012 144.387 120.34C145.067 119.668 145.571 118.92 145.899 118.096C146.227 117.264 146.391 116.368 146.391 115.408V115.252ZM142.299 115.252H146.811V116.056H142.299V115.252Z" fill="black"/>
</svg>
