<svg width="60" height="60" viewBox="0 0 60 60" fill="none" xmlns="http://www.w3.org/2000/svg">
<path d="M30 0.5C46.2924 0.5 59.5 13.7076 59.5 30C59.5 46.2924 46.2924 59.5 30 59.5C13.7076 59.5 0.5 46.2924 0.5 30C0.5 13.7076 13.7076 0.5 30 0.5Z" fill="white" stroke="black"/>
<path d="M46 45.9378V41.9378C46 39.8161 45.1571 37.7812 43.6569 36.281C42.1566 34.7807 40.1217 33.9378 38 33.9378H22C19.8783 33.9378 17.8434 34.7807 16.3431 36.281C14.8429 37.7812 14 39.8161 14 41.9378V45.9378M38 17.9378C38 22.3561 34.4183 25.9378 30 25.9378C25.5817 25.9378 22 22.3561 22 17.9378C22 13.5195 25.5817 9.93781 30 9.93781C34.4183 9.93781 38 13.5195 38 17.9378Z" stroke="#1E1E1E" stroke-width="2" stroke-linecap="round" stroke-linejoin="round"/>
</svg>
